<svg width="40" height="40" viewBox="0 0 40 40" fill="none" xmlns="http://www.w3.org/2000/svg">
<path d="M24.1781 6.03748C14.6344 1.0031 5.94687 4.5906 2.81562 9.49373C1.79062 11.0969 1.06562 14.0125 1.09375 16.325C1.15 21.0844 3.78437 26.3875 9.46875 31.7375C16.4625 38.3187 23.6 37.7437 25.8687 37.1906C28.725 36.4937 30.6406 35.9 30.3469 33.2375C30.3094 32.8875 30.0094 32.2531 29.5563 31.975C28.1031 31.0937 25.0688 30.6344 23.6406 28.5125C21.5656 25.4219 24.1469 25.2656 26.6188 26.5875C29.2656 28.0031 30.7781 28.8875 33.4344 28.6437C35.3813 28.4656 38.2125 27.2906 38.5969 24.0062C38.9406 21.0344 34.6031 11.5375 24.1781 6.03748ZM28.075 22.1875C27.3438 23.3 25.5375 22.9187 24.3531 21.8687C23.1688 20.8187 23.0156 19.0687 23.7844 18.3812C24.5656 17.6844 26.0344 17.8437 27.2188 18.8937C28.4 19.9469 28.6469 21.3125 28.075 22.1875Z" fill="#AC5810"/>
<path d="M24.5969 4.90312C15.0531 -0.131253 6.34375 3.7625 3.2125 8.66562C0.0781267 13.5719 1.44063 22.6562 9.88438 30.6031C16.8781 37.1844 24.0156 36.6094 26.2844 36.0562C29.1406 35.3594 31.1563 34 29.9 32.2656C29.0344 31.0687 25.9313 30.1656 24.0594 27.3781C21.9844 24.2875 24.5656 24.1312 27.0375 25.4531C29.6844 26.8687 31.1969 27.7531 33.8531 27.5094C35.8 27.3312 38.7438 25.825 38.6562 22.7812C38.5656 19.7906 35.0219 10.4062 24.5969 4.90312ZM28.9906 22.1C28.1 23.0625 26.2031 22.8 24.7531 21.5187C23.3063 20.2344 22.8531 18.4156 23.7438 17.4562C24.6344 16.4937 26.5313 16.7562 27.9813 18.0375C29.4313 19.3187 29.8813 21.1406 28.9906 22.1Z" fill="#F2A259"/>
<path d="M14.8812 26.4562C15.2406 25.5375 17.7969 24.5312 20.1469 26.2031C20.8062 26.6719 21.6312 27.8656 21.5469 29.3656C21.2719 34.2656 13.2312 30.6844 14.8812 26.4562Z" fill="#EEEEEE"/>
<path d="M7.41562 18.1469C8.2375 16.8344 10.2344 16.6844 11.9812 17.8188C13.5375 18.8282 14.8375 21.3125 12.9187 22.9375C11.8906 23.8094 10.1125 23.2688 9.01562 22.4282C7.68437 21.4125 6.53125 19.5594 7.41562 18.1469Z" fill="#2686C6"/>
<path d="M18.0219 6.69373C18.275 5.6531 20.0406 5.47498 21.2906 5.9406C23.45 6.74685 24.4281 8.88435 23.6312 10.075C22.4656 11.8156 19.925 11.2187 18.9625 10.2219C17.3281 8.53435 17.8094 7.5656 18.0219 6.69373Z" fill="#FFEE58"/>
<path d="M30.5344 11.7875C32.2656 12.575 32.4906 13.8219 32.1594 14.7312C31.9531 15.2937 31.5312 16.0656 30.6687 16.1344C29.2094 16.2531 29.0062 15.0469 27.9656 14.7156C27.0906 14.4375 26.7344 13.2406 27.0781 12.4375C27.3969 11.6969 28.3281 10.7812 30.5344 11.7875Z" fill="#7CB342"/>
<path d="M20.9281 30.3C20.4969 30.6906 19 31.1719 17.1 29.9844C16.4563 29.5812 15.8406 28.9969 15.4938 28.1219C15.2219 27.4344 15.2813 26.7719 15.4031 26.4781C15.7531 25.6312 16.2875 25.475 16.2875 25.475C15.75 25.4375 14.7344 26.15 14.5656 27.0844C14.5125 27.3781 14.1344 29.2156 16.5688 30.8812C18.6656 32.3187 21.7656 32.1844 21.5625 29.2906C21.4688 29.6469 21.2031 30.0531 20.9281 30.3Z" fill="#B0B0B0"/>
<path d="M13.8312 20.5375C13.7719 21.6531 12.4656 22.2406 11.7375 22.2438C9.67812 22.2469 7.82812 20.9531 7.7 18.65C7.67812 18.2375 7.88125 17.6406 7.88125 17.6406C7.60937 17.7563 7.225 18.3437 7.14375 18.675C6.6625 20.6625 8.66562 22.9781 10.775 23.4469C11.8437 23.6844 13.1906 23.3187 13.6812 22.3625C14.0312 21.6812 13.9625 21.0969 13.8312 20.5375Z" fill="#01579B"/>
<path d="M21.0375 10.225C19.6375 10.0656 18.8625 9.15002 18.6594 8.94065C18.1031 8.3594 17.7594 7.79377 17.9594 6.95627C18.0219 6.68752 18.175 6.34377 18.3625 6.15002C18.1344 6.22502 17.7656 6.71565 17.65 6.98127C17.5312 7.2469 17.1 8.24377 18.025 9.4719C18.5969 10.2344 19.5937 11.0938 21.0687 11.3C22.1156 11.4469 22.8656 11.0719 23.4906 10.4625C23.9156 10.0469 24.1031 9.1094 23.85 8.62502C23.8906 8.97815 23.2437 10.4781 21.0375 10.225Z" fill="#DF7F14"/>
<path d="M32.5531 14.0156C32.425 13.5437 32.0594 13.0531 32.0219 13.0281C32.1813 13.3344 32.4969 14.2531 31.8344 15.1469C31.5 15.5969 30.4938 16.15 29.3063 15.1875C28.9563 14.9031 28.675 14.6219 28.0438 14.3906C26.4406 13.8 27.1406 12.1687 27.6969 11.6625C27.2594 11.8906 26.8625 12.3 26.6969 12.925C26.4656 13.7969 27.0375 14.7094 27.9063 15.1469C28.8938 15.6437 29.2125 16.6031 30.5656 16.6031C30.6344 16.6031 30.7063 16.6 30.7844 16.5937C31.6969 16.5156 32.0813 16.1625 32.3594 15.7312C32.7 15.1937 32.7094 14.5844 32.5531 14.0156Z" fill="#558B2F"/>
<path d="M8.06876 8.05937C8.78126 7.35624 10.0219 6.61249 11.8375 7.55937C12.9313 8.12812 14.2031 8.79687 13.6281 11.1094C13.2719 12.5437 11.1844 13.3031 9.44064 11.7062C8.75001 11.075 6.12502 9.97812 8.06876 8.05937Z" fill="#F44336"/>
<path d="M14.0438 10.8C14.0656 10.2531 13.7844 9.58752 13.6875 9.36252C13.7031 9.69065 13.9875 10.5188 12.6844 11.6156C12.2313 11.9969 11.4094 12.2875 10.5125 11.9344C10.0531 11.7531 9.39376 10.9938 8.92189 10.8031C7.16876 10.0969 7.92501 8.21877 8.17189 7.96252C7.77501 8.24065 7.43751 8.6844 7.31251 9.33127C7.15001 10.1781 7.30001 10.9781 8.46251 11.8938C11.7625 14.4969 12.775 12.9281 13.1344 12.5281C13.5875 12.0406 14.0188 11.4032 14.0438 10.8Z" fill="#C62828"/>
<path d="M20.5438 6.04998C20.0844 5.83436 18.7719 5.89686 18.5188 6.99061C18.3656 7.64686 18.8469 8.31248 19.3 8.23436C19.8156 8.14686 19.5406 7.34373 19.85 7.11561C20.3219 6.77186 21.1875 6.35311 20.5438 6.04998ZM10.8625 7.64373C10.4094 7.34373 8.9625 7.34061 8.52813 8.44998C8.26563 9.11561 8.675 9.88748 9.16563 9.87498C9.725 9.86248 9.45625 9.20311 9.92188 8.78436C10.5094 8.25623 11.4969 8.06248 10.8625 7.64373ZM10.6469 17.6562C10.2188 17.3844 8.95 17.2781 8.425 18.2719C8.04063 19.0031 8.56875 19.8094 9.02813 19.7875C9.55 19.7625 9.375 18.9312 9.70938 18.7437C10.2188 18.4594 11.2469 18.0375 10.6469 17.6562ZM17.9375 25.9781C17.4781 25.7625 16.1656 25.825 15.9125 26.9187C15.7594 27.575 16.2406 28.2406 16.6938 28.1625C17.2094 28.075 16.9344 27.2719 17.2438 27.0437C17.7125 26.7 18.5781 26.2812 17.9375 25.9781ZM29.7125 11.8906C29.3 11.5969 27.9969 11.425 27.5531 12.4562C27.2875 13.075 27.6406 13.8156 28.1 13.8187C28.6219 13.8219 28.4938 12.9844 28.8406 12.8156C29.3625 12.5625 30.2906 12.3031 29.7125 11.8906Z" fill="white"/>
</svg>
