<svg width="40" height="40" viewBox="0 0 40 40" fill="none" xmlns="http://www.w3.org/2000/svg">
<path d="M36.8843 31.975L22.5906 38.4375C21.7093 38.8531 20.7906 38.8125 19.9468 38.325L1.90309 29.1625C1.38746 28.8312 1.23434 28.3469 1.26559 28.0094C1.29684 27.6719 1.37496 27.3062 2.28121 27.0437L3.61871 26.55L21.7187 36.4156L34.5812 31.1594L36.8843 31.975Z" fill="#01579B"/>
<path d="M22.4188 37.4031C22.0614 37.5708 21.6692 37.6509 21.2746 37.6368C20.8801 37.6227 20.4946 37.5147 20.1501 37.3219L2.53443 28.4469C2.28443 28.3094 2.20943 27.9938 2.35943 27.75C2.74693 27.1094 3.45943 25.0844 2.28443 23.4031L22.1782 32.9813L22.4188 37.4031Z" fill="#F5F5F5"/>
<path d="M36.1218 31.2437L22.4187 37.4031C21.9656 37.6 21.0625 37.95 20.0219 37.25C20.8437 37.3093 21.4219 36.9687 21.7187 36.4156C22.0094 35.8781 21.9218 34.9968 21.5687 34.5C21.3531 34.2 20.775 33.7218 20.5219 33.4531L35.3437 27.6562C36.6562 27.1156 37.8875 27.925 38.0844 28.9093C38.3031 30.0218 36.8843 30.9312 36.1218 31.2437Z" fill="#94C6D6"/>
<path d="M36.8062 27.175L22.6594 33.4875C21.7688 33.8407 20.7719 33.7938 19.9188 33.3625L1.84375 24.1813C1.66875 24.0938 1.40938 23.8531 1.30625 23.525C1.1375 22.9781 1.35 22.2906 1.99063 22.0719L21.5781 32.0563L34.9906 26.3156L36.8062 27.175Z" fill="#01579B"/>
<path d="M37.8718 28.0906L36.3312 27.5312L33.1562 27.7156L22.6625 32.4C21.7718 32.7531 20.775 32.7062 19.9218 32.275L1.84372 23.0969C1.37809 22.8594 1.47809 22.1687 1.99059 22.0719L15.0187 16.2438C15.3906 16.175 15.7718 16.2156 16.1187 16.3625L34.7093 25.225C34.7093 25.225 37.6625 27.2469 37.8718 28.0906Z" fill="#0091EA"/>
<path d="M32.9781 27.8063C32.9781 27.8063 34.9343 27.0406 36.4718 27.1094C38.0093 27.1781 38.5437 28.2563 38.5437 28.2563C38.2531 26.9344 36.8875 26.2594 36.8875 26.2594L16.575 16.0313C16.4343 15.9719 15.9156 15.85 15.1187 16.1781C14.475 16.4438 12.3718 17.4281 12.3718 17.4281L32.9781 27.8063Z" fill="#616161"/>
<path d="M38.6313 28.5062C38.4844 27.9219 38.1219 27.2969 37.4531 26.9937C36.5719 26.5969 35.3157 26.7 34.5125 27.1187L32.9781 27.8V28.8812L34.9188 28.0187C36.8063 27.1781 37.6438 28.4375 37.7157 28.7343C38.0157 29.9437 37.4344 30.6437 35.7188 31.4312L32.9313 32.6875V33.775L36.1375 32.3469C37.5563 31.7781 39.175 30.7094 38.6313 28.5062Z" fill="#424242"/>
<path d="M10.3156 28.2219L4.9187 20.7625L5.76558 20.3844L11.8375 28.7281L10.3156 28.2219ZM17.2374 31.6594L16.275 30.8969L32.9781 27.4875V28.0344L30.6374 28.9219L17.2374 31.6594Z" fill="#01579B"/>
<path d="M4.625 14.4312L25.7219 10.9062L34.9375 21.0531C35.4031 21.5438 35.15 22.3562 34.4875 22.4906L12.7062 26.9594L4.625 14.4312Z" fill="#9CCC65"/>
<path d="M34.4875 21.6156L12.8562 25.9969L12.7875 27.0281L34.4875 22.5781C35.1 22.45 35.3562 21.75 35.0219 21.2562C34.9031 21.4312 34.7219 21.5687 34.4875 21.6156ZM35.6531 26.3437C35.8812 26.7062 35.675 27.1844 35.2562 27.2687L15.3437 31.3062C14.1469 31.5531 12.9719 30.7687 12.8656 29.55C12.775 28.5187 13.4719 27.5844 14.4875 27.3719L33.6375 23.0719L35.6531 26.3437Z" fill="#689F38"/>
<path d="M17.3718 25.0313L9.44058 13.6813L4.91558 14.8782C3.8687 15.9188 4.25933 17.6282 4.25933 17.6282C4.25933 17.6282 11.1875 28.7469 12.2812 30.1688C13.375 31.5907 14.9718 31.3688 14.9718 31.3688L17.6687 30.825L17.3875 25.7938L17.3718 25.0313Z" fill="#616161"/>
<path d="M17.3718 25.1062L13.5625 25.8937C12.5218 26.1281 12.3343 27.1062 12.3343 27.1062L3.13745 13.9281C3.13745 13.9281 1.82808 15.5125 2.69683 16.8594L12.2812 30.1687C13.3281 31.6593 14.9718 31.3812 14.9718 31.3812L17.6687 30.8375L17.3906 25.9062L17.3718 25.1062Z" fill="#424242"/>
<path d="M34.4532 25.9375C34.55 26.15 34.425 26.3969 34.1969 26.4437L15.1563 30.35C13.9594 30.5969 13.1125 29.8031 13.1563 28.7219C13.2125 27.3562 13.9782 26.7781 14.9907 26.5687L34.125 22.6594C34.125 22.6594 33.475 23.3906 33.9719 24.7594C34.1407 25.2312 34.3219 25.65 34.4532 25.9375Z" fill="#B9E4EA"/>
<path d="M14.1281 26.1562L5.96875 14.6125" stroke="#424242" stroke-width="1.0355" stroke-miterlimit="10"/>
<path d="M14.7687 21.2344L4.27498 15.9469L3.84998 16.7844L15.975 22.9625L14.7687 21.2344Z" fill="#424242"/>
<path d="M33.9969 20.0094L33.2282 19.1656L21.4063 24.5906L14.7688 21.3063L15.9 22.925L20.2969 25.1719L23.5719 24.6688L33.9969 20.0094Z" fill="#689F38"/>
<path d="M36.8812 17.9219L22.5906 24.3843C21.7093 24.8 20.7906 24.7593 19.9468 24.2719L1.90309 15.1094C1.38746 14.7781 1.23434 14.2937 1.26559 13.9562C1.29684 13.6187 1.37496 13.2531 2.28121 12.9906L3.12809 12.6781L21.6656 21.775L36.7187 15.5469L36.8812 17.9219Z" fill="#C62828"/>
<path d="M22.4156 23.35C22.0582 23.5177 21.666 23.5978 21.2714 23.5836C20.8769 23.5695 20.4914 23.4616 20.1469 23.2687L2.53126 14.3937C2.28126 14.2562 2.20626 13.9406 2.35626 13.6969C2.74376 13.0562 3.45626 11.0312 2.28126 9.34998L21.7313 19.2437L22.4156 23.35Z" fill="#F5F5F5"/>
<path d="M36.1188 17.1906L22.4157 23.35C21.9626 23.5469 21.0594 23.8969 20.0188 23.1969C20.8407 23.2562 21.4188 22.9156 21.7157 22.3625C22.0063 21.825 21.9188 20.9437 21.5657 20.4469C21.3501 20.1469 20.7719 19.6687 20.5188 19.4L35.3407 13.6031C36.6532 13.0625 37.8844 13.8719 38.0813 14.8562C38.3 15.9687 36.8813 16.8781 36.1188 17.1906Z" fill="#94C6D6"/>
<path d="M36.8062 13.1219L22.6593 19.4344C21.7687 19.7875 20.7718 19.7407 19.9187 19.3094L1.84059 10.1281C1.65309 10.0344 1.37184 9.79377 1.28121 9.45315C1.14684 8.9469 1.32184 8.28127 1.98746 8.01877L18.5531 4.5094L36.8062 13.1219Z" fill="#C62828"/>
<path d="M37.8687 14.0375L36.3281 13.4782L33.1531 13.6625L22.6593 18.3469C21.7687 18.7 20.7718 18.6532 19.9187 18.2219L1.84059 9.04065C1.37496 8.80315 1.54059 8.17502 1.98746 8.01565L15.0187 2.19065C15.3906 2.1219 15.7718 2.16253 16.1187 2.3094L34.7093 11.1719C34.7093 11.1719 37.6593 13.1906 37.8687 14.0375Z" fill="#F44336"/>
<path d="M32.9781 13.75C32.9781 13.75 34.6063 13.1781 36.1438 13.2469C37.6813 13.3156 38.5469 14.2 38.5469 14.2C38.2313 12.7875 36.8906 12.2031 36.8906 12.2031L16.5781 1.97498C16.4375 1.91561 15.9188 1.79373 15.1219 2.12186C14.4781 2.38748 12.375 3.37186 12.375 3.37186L32.9781 13.75Z" fill="#616161"/>
<path d="M34.8375 13.0812L14.0531 2.59685L14.7406 2.28748L35.8781 12.8812L34.8375 13.0812Z" fill="#424242"/>
<path d="M38.6281 14.4531C38.4812 13.8688 38.2344 13.3031 37.5375 13.0094C36.6469 12.6344 35.8343 12.5563 34.5093 13.0656L32.975 13.7469V14.8281L34.9156 13.9656C35.9 13.5031 37.35 13.6031 37.7125 14.6813C38.1093 15.8625 37.4312 16.5906 35.7156 17.3781L32.9281 18.6344V19.7219L36.1343 18.2938C37.5562 17.725 39.175 16.6563 38.6281 14.4531Z" fill="#424242"/>
</svg>
