<svg width="40" height="40" viewBox="0 0 40 40" fill="none" xmlns="http://www.w3.org/2000/svg">
<path d="M23.8688 33.2625C24.5781 32.7156 26.7125 32.6406 27.6188 32.5125C28.1875 32.4312 29.2094 32.3468 29.6469 31.8718C30.4438 31.0093 30.4969 30.1781 30.4094 29.4437C30.3156 28.6781 30.1594 27.9406 30.4469 27.4781C30.5938 27.2437 31.2125 26.0625 30.4719 25.7718C30.0781 25.6156 29.8219 25.7562 28.1813 25.8125C27.4188 25.8375 26.8375 25.5468 27.0875 25.1343C27.3656 24.8187 28.5563 24.6843 29.675 24.2718C30.4656 23.9812 30.8813 23.8031 30.9719 23.1218C31.0281 22.7093 30.7281 22.4656 30.575 21.9531C30.4344 21.4875 30.5688 21.275 30.7594 21.0875C31.05 20.8031 31.8188 20.3437 31.9219 19.5062C32.0938 18.075 29.7063 17.3375 28.9219 15.8531C28.5469 15.1437 28.8656 13.2156 28.8656 12.5875C28.8656 10.0437 27.5938 5.78122 23.575 3.34685C19.9625 1.15935 15.4313 0.915596 11.3313 1.9406C9.37188 2.43122 7.38438 3.75622 6.09375 4.9156C3.00938 7.68435 2.3125 11.7656 2.0875 13.2281C1.375 17.8281 2.61875 21.3468 4.40313 24.1718C6.98125 28.2562 10.6906 30.8906 11.2594 33.2375C11.3469 33.6031 11.4156 34.3656 11.4156 35.0218C11.4156 36.425 11.3375 37.5875 11.2563 38.4375H23.1031C23.0813 36.475 23.0438 33.9031 23.8688 33.2625Z" fill="#1976D2"/>
<path d="M32.75 22.2969C32.6022 22.2967 32.4583 22.249 32.3397 22.1608C32.221 22.0726 32.1339 21.9485 32.0912 21.807C32.0484 21.6655 32.0523 21.514 32.1023 21.3748C32.1523 21.2357 32.2457 21.1163 32.3687 21.0344L37.1 17.9125C37.4156 17.7031 37.8437 17.7906 38.0531 18.1062C38.2625 18.4219 38.175 18.85 37.8594 19.0594L33.1281 22.1812C33.0125 22.2594 32.8812 22.2969 32.75 22.2969ZM37.4812 30.7344C37.35 30.7344 37.2187 30.6969 37.1031 30.6219L32.3719 27.5C32.2964 27.4503 32.2315 27.3861 32.1809 27.3112C32.1303 27.2364 32.095 27.1522 32.077 27.0637C32.059 26.9751 32.0587 26.8839 32.076 26.7952C32.0934 26.7065 32.1281 26.6221 32.1781 26.5469C32.2278 26.4714 32.292 26.4065 32.3669 26.3559C32.4417 26.3053 32.5259 26.27 32.6144 26.252C32.703 26.234 32.7942 26.2336 32.8829 26.251C32.9716 26.2684 33.056 26.3031 33.1312 26.3531L37.8625 29.475C38.1812 29.6844 38.2656 30.1125 38.0562 30.4281C37.9219 30.625 37.7031 30.7344 37.4812 30.7344ZM32.9031 24.8062C32.8128 24.8071 32.7233 24.7901 32.6396 24.7563C32.5558 24.7225 32.4796 24.6726 32.4152 24.6093C32.3507 24.546 32.2994 24.4707 32.2641 24.3876C32.2288 24.3045 32.2102 24.2153 32.2094 24.125C32.2086 24.0347 32.2255 23.9451 32.2593 23.8614C32.2931 23.7777 32.3431 23.7014 32.4063 23.637C32.4696 23.5726 32.5449 23.5213 32.628 23.486C32.7111 23.4507 32.8003 23.4321 32.8906 23.4312L38.5562 23.3312C38.9375 23.3281 39.25 23.6281 39.2562 24.0062C39.2625 24.3844 38.9594 24.7 38.5812 24.7062L32.9156 24.8062H32.9031Z" fill="#B0BEC5"/>
</svg>
