<svg width="40" height="40" viewBox="0 0 40 40" fill="none" xmlns="http://www.w3.org/2000/svg">
<path d="M16.2625 30.1219C8.88123 30.1438 1.22498 32.4125 1.22498 37.9531V38.9031H31.2969V37.9531C31.3 32.4094 23.6437 30.1406 16.2625 30.1219Z" fill="url(#paint0_radial_21_885)"/>
<path d="M28.1687 32.8344L26.35 38.9H31.2969V37.95C31.3 35.75 30.0875 34.0656 28.1687 32.8344Z" fill="url(#paint1_linear_21_885)"/>
<path d="M16.3531 28.9156H13.5156V32.0344C13.5156 33.4438 14.6719 34.5875 16.0969 34.5875H16.6125C18.0375 34.5875 19.1937 33.4438 19.1937 32.0344V28.9156H16.3531Z" fill="#E59600"/>
<path d="M19.6562 33.0125H13.0469L13.8031 38.9H18.9812L19.6562 33.0125Z" fill="url(#paint2_linear_21_885)"/>
<path d="M13.4875 30.2188C11.6375 30.3531 10.7719 30.5125 10.7719 30.5125L9.79376 32.7938L11.4344 34.1656L9.90939 36.0875L12.1344 38.9H14.4406L13.4875 30.2188Z" fill="url(#paint3_linear_21_885)"/>
<path d="M19.1688 30.2188C21.0188 30.3531 21.8844 30.5125 21.8844 30.5125L22.8625 32.7938L21.2219 34.1656L22.7469 36.0875L20.5219 38.9H18.2156L19.1688 30.2188Z" fill="url(#paint4_linear_21_885)"/>
<path d="M38.2594 23.1063C38.6156 25.5406 38.225 28.3781 38.225 28.3781L35.0188 28.0969C35.0188 28.0969 34.8969 26.25 35.0188 26.2469L38.2594 23.1063Z" fill="#80CBC4"/>
<path d="M35.0312 27.5875C32.95 27.3344 32.0344 27.0875 32.0344 27.0875L28.4906 38.9H37.3L38.5937 27.5844C38.5969 27.5844 37.6125 27.9 35.0312 27.5875Z" fill="url(#paint5_linear_21_885)"/>
<path opacity="0.86" d="M34.5656 35.3344C33.8563 35.7719 31.7188 35.3719 29.6438 34.6312C28.0438 34.0594 26.7594 33.3312 26.7469 33.3281C26.5813 33.25 25.0281 32.4062 25.0281 31.5344C25.0281 30.8094 25.6406 30.3187 25.7906 30.15L25.8219 30.1187L31.2781 24.6219L35.3844 14.6844L35.3906 14.6812C35.3906 14.6812 36.1281 14.4281 37.1625 14.8344C38.1969 15.2406 38.7281 15.9156 38.7281 15.9156L38.7219 15.9187L35.0188 26.1125C35.0188 26.1125 35.0281 33.4187 35.0188 34.0469C35.0063 34.8969 34.9063 35.1219 34.5656 35.3344Z" fill="url(#paint6_linear_21_885)"/>
<path opacity="0.8" d="M33.4406 34.8469C31.6781 34.1594 28.0094 32.7062 26.2437 31.9906C25.7656 31.7937 25.6406 31.1781 26.0031 30.8125L28.325 28.4719L34.4219 28.1781V34.175C34.4219 34.6781 33.9125 35.0312 33.4406 34.8469Z" fill="url(#paint7_radial_21_885)"/>
<path d="M30.3 31.3159L30.5416 30.7394L32.5019 31.56L32.2603 32.1366L30.3 31.3159ZM30.9328 29.6159L31.1741 29.0394L33.1344 29.86L32.8928 30.4366L30.9328 29.6159ZM31.564 27.9175L31.8056 27.3409L33.7656 28.1616L33.5244 28.7381L31.564 27.9175ZM32.1975 26.2156L32.4387 25.6394L34.3991 26.46L34.1575 27.0366L32.1975 26.2156ZM32.83 24.5156L33.0712 23.9394L35.0315 24.76L34.79 25.3366L32.83 24.5156ZM33.4606 22.8181L33.7019 22.2416L35.6619 23.0619L35.4206 23.6384L33.4606 22.8181ZM34.0925 21.1178L34.3337 20.5412L36.2941 21.3619L36.0528 21.9384L34.0925 21.1178ZM34.8784 19.1422L35.1197 18.5656L37.08 19.3862L36.8387 19.9628L34.8784 19.1422ZM35.5109 17.4409L35.7522 16.8647L37.7125 17.685L37.4709 18.2616L35.5109 17.4409Z" fill="white"/>
<path d="M30.8906 25.0094C30.8906 25.0094 30.1 24.3406 30.1031 23.7312C30.1062 23.2437 30.6937 22.7812 30.6937 22.7812C30.6937 22.7812 30.1312 21.9156 30.3375 21.4437C30.6312 20.775 31.4031 20.6469 31.4031 20.6469C31.4031 20.6469 31.0531 19.775 31.6062 19.2625C32 18.8969 33.1375 19.05 33.1375 19.05C33.1375 19.05 33.25 17.6187 34.6437 17.9781C35.1875 18.1187 37.1156 19.225 37.8343 21.5594C38.2843 23.0187 38.4593 23.4531 38.3156 25.6406C38.2531 26.5687 35.9062 26.5687 35.0218 26.25C32.8187 25.4562 32.1937 24.4875 31.8906 24.4937C31.5843 24.5 30.8906 25.0094 30.8906 25.0094Z" fill="#80CBC4"/>
<path d="M31.1625 22.2375C30.9375 22.2781 30.7625 22.4594 30.7125 22.6844L30.6906 22.7812L31.9969 22.3344C31.6937 22.1906 31.3906 22.1969 31.1625 22.2375ZM32.7531 20.7344C32.575 20.5375 32.3687 20.425 32.1844 20.3594C31.8906 20.2562 31.5656 20.3812 31.4031 20.6469L32.7531 20.7344ZM33.7812 18.8437C33.5531 18.7531 33.2812 18.8219 33.1437 19.025C33.1406 19.0312 33.1375 19.0375 33.1344 19.0406C33.6906 19.1094 34.525 19.4594 34.525 19.4594C34.3531 19.1281 34.0344 18.9437 33.7812 18.8437Z" fill="#26A69A"/>
<path d="M34.2253 34.6508C34.4373 34.1129 32.731 32.9363 30.4142 32.0228C28.0973 31.1094 26.0472 30.8049 25.8351 31.3427C25.623 31.8806 27.3293 33.0572 29.6462 33.9707C31.9631 34.8841 34.0132 35.1886 34.2253 34.6508Z" fill="#8F5D9B"/>
<path d="M38.692 16.0534C38.8874 15.5571 38.2998 14.8611 37.3797 14.4988C36.4595 14.1365 35.5552 14.245 35.3598 14.7412C35.1644 15.2374 35.7519 15.9334 36.6721 16.2958C37.5923 16.6581 38.4966 16.5496 38.692 16.0534Z" fill="#81D4FA"/>
<path d="M24.8906 15.825H7.81251C5.97189 15.825 4.46564 17.4313 4.46564 19.3906C4.46564 21.35 5.97189 22.9563 7.81251 22.9563H24.8906C26.7313 22.9563 28.2375 21.35 28.2375 19.3906C28.2375 17.4313 26.7313 15.825 24.8906 15.825Z" fill="#E59600"/>
<path d="M16.3531 3.52185C10.9156 3.52185 5.87811 9.33748 5.87811 17.7094C5.87811 26.0344 11.0687 30.15 16.3531 30.15C21.6375 30.15 26.8281 26.0344 26.8281 17.7094C26.8281 9.33748 21.7906 3.52185 16.3531 3.52185Z" fill="#FFCA28"/>
<path d="M17.5219 21.3313C17.4875 21.3188 17.4562 21.3094 17.4219 21.3063H15.2094C15.175 21.3094 15.1406 21.3188 15.1094 21.3313C14.9094 21.4125 14.8 21.6188 14.8937 21.8406C14.9875 22.0625 15.4281 22.6813 16.3156 22.6813C17.2031 22.6813 17.6437 22.0594 17.7375 21.8406C17.8344 21.6219 17.725 21.4125 17.5219 21.3313Z" fill="#E59600"/>
<path d="M18.9813 23.8593C17.9844 24.45 14.7219 24.45 13.7281 23.8593C13.1563 23.5187 12.5719 24.0406 12.8094 24.5593C13.0438 25.0687 14.8219 26.2531 16.3625 26.2531C17.9031 26.2531 19.6594 25.0687 19.8938 24.5593C20.1313 24.0375 19.5531 23.5187 18.9813 23.8593Z" fill="#795548"/>
<path d="M9.12499 15.8531C10.0594 14.5313 12.1812 14.4063 13.3969 15.3906C13.5906 15.5469 13.8469 15.7656 13.9219 16.0094C14.0469 16.4063 13.6656 16.7156 13.2937 16.6219C13.0562 16.5625 12.8344 16.4344 12.6 16.3625C12.1719 16.2281 11.8625 16.1906 11.4781 16.1906C10.9094 16.1875 10.5437 16.2594 10.0031 16.4781C9.78124 16.5688 9.59999 16.7125 9.34687 16.6063C9.05624 16.4844 8.94687 16.1125 9.12499 15.8531ZM22.9781 16.6031C22.8875 16.5625 22.8 16.5125 22.7094 16.475C22.1531 16.2438 21.8375 16.1844 21.2344 16.1875C20.7031 16.1906 20.3875 16.2625 19.9719 16.4031C19.7187 16.4906 19.3969 16.7094 19.1156 16.625C18.7062 16.5 18.7156 16.05 18.9406 15.7625C19.2094 15.425 19.575 15.1688 19.9687 15C20.875 14.6063 21.9812 14.6625 22.8344 15.1719C23.1125 15.3375 23.4156 15.5656 23.5844 15.8531C23.8312 16.2594 23.4594 16.8 22.9781 16.6031Z" fill="#6D4C41"/>
<path d="M11.4844 20.0375C12.3352 20.0375 13.025 19.3239 13.025 18.4437C13.025 17.5635 12.3352 16.85 11.4844 16.85C10.6335 16.85 9.94373 17.5635 9.94373 18.4437C9.94373 19.3239 10.6335 20.0375 11.4844 20.0375Z" fill="#404040"/>
<path d="M21.2187 20.0375C22.0696 20.0375 22.7594 19.3239 22.7594 18.4437C22.7594 17.5635 22.0696 16.85 21.2187 16.85C20.3679 16.85 19.6781 17.5635 19.6781 18.4437C19.6781 19.3239 20.3679 20.0375 21.2187 20.0375Z" fill="#404040"/>
<path d="M16.3219 1.2594H16.3094C2.1125 1.3344 5.02188 17.5531 5.02188 17.5531C5.02188 17.5531 5.65938 19.225 5.95 19.9625C5.99063 20.0688 6.14688 20.0563 6.17188 19.9469C6.475 18.5906 7.56563 13.7813 8.11563 12.3188C8.27311 11.9016 8.57227 11.5532 8.96075 11.3344C9.34923 11.1156 9.80229 11.0404 10.2406 11.1219C11.6313 11.375 13.85 11.6875 16.2938 11.6875H16.3438C18.7906 11.6875 21.0063 11.375 22.3969 11.1219C23.3031 10.9563 24.1969 11.4594 24.5188 12.3188C25.0656 13.775 26.15 18.5563 26.4563 19.9313C26.4813 20.0438 26.6375 20.0531 26.6781 19.9469L27.6094 17.55C27.6125 17.5531 30.5219 1.3344 16.3219 1.2594Z" fill="#543930"/>
<path d="M27.6125 17.5531C27.6125 17.5531 30.5219 1.3344 16.3219 1.2594H16.3094C16.0875 1.2594 15.8719 1.26565 15.6594 1.27502C15.2375 1.29377 14.8281 1.32502 14.4344 1.3719H14.4219C14.3938 1.37502 14.3688 1.38127 14.3406 1.3844C2.39377 2.88752 5.0219 17.5531 5.0219 17.5531L5.95315 19.9531C5.99377 20.0594 6.1469 20.05 6.1719 19.9375C6.47815 18.5656 7.56565 13.7781 8.11565 12.3219C8.27313 11.9048 8.57229 11.5563 8.96077 11.3375C9.34925 11.1187 9.80231 11.0435 10.2406 11.125C11.6313 11.3781 13.85 11.6906 16.2938 11.6906H16.3438C18.7906 11.6906 21.0063 11.3781 22.3969 11.125C23.3031 10.9594 24.1969 11.4625 24.5188 12.3219C25.0688 13.7844 26.1594 18.6031 26.4625 19.9531C26.4875 20.0656 26.6406 20.075 26.6813 19.9688C26.9719 19.2313 27.6125 17.5531 27.6125 17.5531Z" fill="url(#paint8_radial_21_885)"/>
<path d="M9.78751 13.8469H23.1156L24.925 15.4406V20.1375C24.925 20.1375 23.6938 21.8562 20.725 21.1344C17.7563 20.4125 18.1531 18.6187 16.3875 18.6187C14.6219 18.6187 13.8094 21.4844 9.94376 21.4062C9.94376 21.4062 7.95001 21.2312 7.58126 19.9812L7.49689 14.7906L9.78751 13.8469Z" fill="url(#paint9_linear_21_885)"/>
<path d="M27.6563 17.1125C27.6594 17.3219 27.5969 17.525 27.4781 17.6969L25.7688 20.2125C25.125 21.1031 22.8625 21.5969 22.8625 21.5969L25.4187 18.7406L24.9313 15.1469L22.6094 13.3344C22.6094 13.3344 23.5687 13.4281 24.2469 13.4281C24.925 13.4281 25.6 13.8625 25.9469 14.1031L27.2031 14.9687C27.4781 15.1594 27.6406 15.4687 27.6438 15.8031L27.6563 17.1125Z" fill="url(#paint10_linear_21_885)"/>
<path d="M5.05626 17.1125C5.05314 17.3219 5.11564 17.525 5.23439 17.6969L6.94376 20.2125C7.58751 21.1031 9.85001 21.5969 9.85001 21.5969L7.29376 18.7406L7.78126 15.1469L10.1031 13.3344C10.1031 13.3344 9.14376 13.4281 8.46564 13.4281C7.78751 13.4281 7.11251 13.8625 6.76564 14.1031L5.50939 14.9687C5.23439 15.1594 5.07189 15.4687 5.06876 15.8031L5.05626 17.1125Z" fill="url(#paint11_linear_21_885)"/>
<path d="M22.4375 14.2594C22.7813 14.2594 23.3531 14.3688 23.8375 14.6781C24.4938 15.0969 24.5125 15.5813 24.5188 15.7406C24.5281 15.9813 24.5375 16.2125 24.55 16.4438C24.5813 17.1656 24.6125 17.8469 24.6125 18.5094C24.6125 19.8688 23.3906 20.8156 21.6438 20.8156C20.4094 20.8156 19.0125 19.775 18.375 19.075C17.875 18.5281 17.1375 18.2125 16.35 18.2125C15.5625 18.2125 14.825 18.5281 14.325 19.075C13.6875 19.775 12.2906 20.8156 11.0563 20.8156C9.30939 20.8156 8.08751 19.8688 8.08751 18.5094C8.08751 17.8438 8.11876 17.1625 8.15001 16.4438C8.15939 16.2125 8.17189 15.9781 8.18126 15.7406C8.18751 15.5813 8.20626 15.0969 8.86251 14.6781C9.34689 14.3688 9.91876 14.2594 10.2625 14.2594H22.4375ZM22.4375 13.3219H10.2656C9.14689 13.3219 7.31564 14.0406 7.24689 15.7031C7.20626 16.7031 7.15314 17.6094 7.15314 18.5125C7.15314 20.3875 8.78126 21.7563 11.0594 21.7563C12.6219 21.7563 14.2313 20.575 15.0188 19.7094C15.3563 19.3406 15.8531 19.1531 16.35 19.1531C16.8438 19.1531 17.3469 19.3406 17.6813 19.7094C18.4719 20.575 20.0781 21.7563 21.6406 21.7563C23.9188 21.7563 25.5469 20.3875 25.5469 18.5125C25.5469 17.6125 25.4938 16.7031 25.4531 15.7031C25.3875 14.0406 23.5563 13.3219 22.4375 13.3219Z" fill="url(#paint12_radial_21_885)"/>
<defs>
<radialGradient id="paint0_radial_21_885" cx="0" cy="0" r="1" gradientUnits="userSpaceOnUse" gradientTransform="translate(16.7012 39.8914) scale(21.3184 12.8657)">
<stop offset="0.559" stop-color="#F5F5F5"/>
<stop offset="1" stop-color="#C6C6C6"/>
</radialGradient>
<linearGradient id="paint1_linear_21_885" x1="27.5122" y1="35.9009" x2="32.0303" y2="36.4994" gradientUnits="userSpaceOnUse">
<stop stop-color="#9E9E9E" stop-opacity="0"/>
<stop offset="0.788" stop-color="#9E9E9E"/>
</linearGradient>
<linearGradient id="paint2_linear_21_885" x1="16.3519" y1="33.0125" x2="16.3519" y2="38.9591" gradientUnits="userSpaceOnUse">
<stop offset="0.003" stop-color="#80CBC4"/>
<stop offset="0.333" stop-color="#73C6BE"/>
<stop offset="0.941" stop-color="#51B8AE"/>
<stop offset="1" stop-color="#4DB6AC"/>
</linearGradient>
<linearGradient id="paint3_linear_21_885" x1="12.1191" y1="36.6494" x2="12.1191" y2="30.3359" gradientUnits="userSpaceOnUse">
<stop offset="0.335" stop-color="#E0E0E0"/>
<stop offset="0.668" stop-color="#D0D0D0"/>
<stop offset="0.987" stop-color="#BDBDBD"/>
</linearGradient>
<linearGradient id="paint4_linear_21_885" x1="20.5378" y1="36.6494" x2="20.5378" y2="30.3359" gradientUnits="userSpaceOnUse">
<stop offset="0.335" stop-color="#E0E0E0"/>
<stop offset="0.668" stop-color="#D0D0D0"/>
<stop offset="0.987" stop-color="#BDBDBD"/>
</linearGradient>
<linearGradient id="paint5_linear_21_885" x1="30.6531" y1="32.8594" x2="38.6978" y2="33.9253" gradientUnits="userSpaceOnUse">
<stop offset="0.437" stop-color="#F5F5F5"/>
<stop offset="1" stop-color="#C6C6C6"/>
</linearGradient>
<linearGradient id="paint6_linear_21_885" x1="37.0888" y1="16.4078" x2="30.0647" y2="32.88" gradientUnits="userSpaceOnUse">
<stop stop-color="#B3E5FC" stop-opacity="0.8"/>
<stop offset="0.083" stop-color="#AEE3FC" stop-opacity="0.817"/>
<stop offset="0.674" stop-color="#8DD8FA" stop-opacity="0.935"/>
<stop offset="1" stop-color="#81D4FA"/>
</linearGradient>
<radialGradient id="paint7_radial_21_885" cx="0" cy="0" r="1" gradientUnits="userSpaceOnUse" gradientTransform="translate(34.5537 28.0774) rotate(13.308) scale(7.92687 7.92688)">
<stop stop-color="#CE93D8"/>
<stop offset="0.205" stop-color="#CA8AD5"/>
<stop offset="0.537" stop-color="#BF73CC"/>
<stop offset="0.95" stop-color="#AD4CBE"/>
<stop offset="1" stop-color="#AB47BC"/>
</radialGradient>
<radialGradient id="paint8_radial_21_885" cx="0" cy="0" r="1" gradientUnits="userSpaceOnUse" gradientTransform="translate(16.3172 14.718) scale(11.9037 13.4298)">
<stop offset="0.794" stop-color="#6D4C41" stop-opacity="0"/>
<stop offset="1" stop-color="#6D4C41"/>
</radialGradient>
<linearGradient id="paint9_linear_21_885" x1="16.2094" y1="13.8466" x2="16.2094" y2="21.4069" gradientUnits="userSpaceOnUse">
<stop offset="0.203" stop-color="#B3E5FC" stop-opacity="0.5"/>
<stop offset="1" stop-color="#B3E5FC" stop-opacity="0.2"/>
</linearGradient>
<linearGradient id="paint10_linear_21_885" x1="25.1325" y1="17.4315" x2="25.1325" y2="13.4853" gradientUnits="userSpaceOnUse">
<stop stop-color="#BDBDBD"/>
<stop offset="1" stop-color="#E0E0E0"/>
</linearGradient>
<linearGradient id="paint11_linear_21_885" x1="7.58001" y1="17.3794" x2="7.58001" y2="13.5912" gradientUnits="userSpaceOnUse">
<stop stop-color="#BDBDBD"/>
<stop offset="1" stop-color="#E0E0E0"/>
</linearGradient>
<radialGradient id="paint12_radial_21_885" cx="0" cy="0" r="1" gradientUnits="userSpaceOnUse" gradientTransform="translate(16.3514 17.54) rotate(90) scale(7.155 10.0771)">
<stop stop-color="#F5F5F5"/>
<stop offset="0.676" stop-color="#EEEEEE"/>
<stop offset="1" stop-color="#E0E0E0"/>
</radialGradient>
</defs>
</svg>
