<svg width="40" height="40" viewBox="0 0 40 40" fill="none" xmlns="http://www.w3.org/2000/svg">
<path d="M21.5906 1.32501C21.2531 1.62501 18.6281 6.83438 18.6281 6.83438L16.675 14.7125L24.275 14.0156C24.275 14.0156 30.5969 2.25938 30.725 1.98751C30.9531 1.49376 31.075 1.29063 30.2031 1.29063C29.3312 1.28751 21.9062 1.04376 21.5906 1.32501Z" fill="#176CC7"/>
<path d="M25.525 13.5281C25.1469 13.325 14.0094 13.15 13.7469 13.5281C13.5094 13.8719 13.6437 15.675 13.7344 15.8906C13.8969 16.2656 17.475 17.7187 17.475 17.7187V18.6219C17.475 18.6219 17.7187 18.7219 19.8062 18.7219C21.8937 18.7219 22.3094 18.6156 22.3094 18.6156L22.325 17.7469C22.325 17.7469 25.4312 16.1469 25.5937 15.925C25.7375 15.7406 25.9031 13.7312 25.525 13.5281ZM22.2937 16.3844C22.2937 16.3844 22.3375 15.9531 22.1219 15.8469C21.9062 15.7375 18.1781 15.7562 17.8844 15.7719C17.5906 15.7875 17.5906 16.3125 17.5906 16.3125L15.2562 15.0781L15.2156 14.6656L23.9469 14.7125L23.9656 15.2687L22.2937 16.3844Z" fill="#FCC11A"/>
<path d="M18.45 16.2C18.1563 16.2 17.9344 16.5313 17.9344 17.0563C17.9344 17.55 18.1031 17.9563 18.475 17.9344C18.8281 17.9156 18.9969 17.4688 18.9719 17.05C18.9406 16.5594 18.8219 16.2 18.45 16.2Z" fill="#FDFFFF"/>
<path d="M9.15938 28.7781C9.15938 36.2656 15.9438 39.3812 20.4469 39.2469C25.6938 39.0906 31.3375 35.1094 30.8719 27.9656C30.4344 21.2625 24.7188 18.0625 19.7875 18.1C14.0563 18.1406 9.15938 22.2375 9.15938 28.7781Z" fill="#F8932A"/>
<path d="M20.1625 37.9031C20.0844 37.9031 20.0031 37.9031 19.925 37.9C17.5812 37.8219 15.2 36.9375 13.5062 35.2969C11.6938 33.5406 10.575 31.3187 10.5687 28.7656C10.5531 22.0594 16.3 19.5938 19.9969 19.5938H20.0281C25.0375 19.6156 29.3656 23.3594 29.4781 28.6375C29.5281 30.9875 28.5656 33.475 26.6781 35.3312C24.9187 37.0594 22.3219 37.9031 20.1625 37.9031Z" fill="#FCC11A"/>
<path d="M7.97187 1.16251C7.775 1.34376 15.3031 14.75 15.3031 14.75C15.3031 14.75 16.5656 14.9125 19.3844 14.9375C22.2031 14.9625 23.6 14.775 23.6 14.775C23.6 14.775 17.7469 1.29688 17.3969 1.16251C17.225 1.09376 14.9062 1.06876 12.6406 1.04376C10.3719 1.01563 8.15937 0.987508 7.97187 1.16251Z" fill="#2E9DF4"/>
<path d="M16.3406 21.0469C15.8844 20.6562 13.5625 21.8344 11.9313 24.5312C10.8375 26.3406 10.7438 28.6562 11.4406 28.6937C12.1375 28.7312 12.1281 26.4406 13.6438 24.4375C15.475 22.0281 17 21.6125 16.3406 21.0469Z" fill="#FEFFFA"/>
<path d="M20.1156 20.9062C19.5063 20.9062 18.5563 24.9344 17.8094 25.4312C17.0625 25.9281 13.1938 25.4531 13.15 25.9969C13.1063 26.5406 16.0219 28.8031 16.3625 29.6375C16.7031 30.4719 14.8906 34.2063 15.3906 34.5688C15.8875 34.9313 19.0094 32.3281 20.05 32.3281C21.1344 32.3281 23.9281 35.1063 24.3937 34.725C24.8844 34.325 23.3094 30.675 23.5562 29.8375C23.8062 29 27.1969 27.2125 27.0625 26.4C26.9281 25.5844 22.9906 26.1969 22.2656 25.5188C21.5406 24.8406 20.7719 20.9062 20.1156 20.9062Z" fill="#F8932A"/>
</svg>
