<svg width="38" height="38" viewBox="0 0 38 38" fill="none" xmlns="http://www.w3.org/2000/svg">
<path d="M35.622 26.128H2.37201C1.71592 26.128 1.18451 25.5966 1.18451 24.9405V3.56549C1.18451 2.9094 1.71592 2.37799 2.37201 2.37799H35.622C36.2781 2.37799 36.8095 2.9094 36.8095 3.56549V24.9405C36.8095 25.5966 36.2781 26.128 35.622 26.128Z" fill="url(#paint0_linear_21_862)"/>
<path opacity="0.3" d="M35.622 26.128H2.37201C1.71592 26.128 1.18451 25.5966 1.18451 24.9405V3.56549C1.18451 2.9094 1.71592 2.37799 2.37201 2.37799H35.622C36.2781 2.37799 36.8095 2.9094 36.8095 3.56549V24.9405C36.8095 25.5966 36.2781 26.128 35.622 26.128Z" fill="url(#paint1_linear_21_862)"/>
<path opacity="0.3" d="M35.628 26.128H2.37799C1.7219 26.128 1.19049 25.5966 1.19049 24.9405V3.56549C1.19049 2.9094 1.7219 2.37799 2.37799 2.37799H35.628C36.2841 2.37799 36.8155 2.9094 36.8155 3.56549V24.9405C36.8155 25.5966 36.2811 26.128 35.628 26.128Z" fill="url(#paint2_linear_21_862)"/>
<path d="M3.55951 4.75299H10.6845V5.94049H3.55951V4.75299ZM25.5283 4.75299H30.2783V5.94049H25.5283V4.75299ZM32.0595 4.75299H34.4345V5.94049H32.0595V4.75299ZM5.93451 8.31549H8.30951V9.50299H5.93451V8.31549ZM3.55951 11.878H8.30951V13.0655H3.55951V11.878ZM3.55951 15.4405H5.93451V16.628H3.55951V15.4405ZM29.0908 15.4405H32.6533V16.628H29.0908V15.4405ZM30.872 11.878H34.4345V13.0655H30.872V11.878ZM3.55951 19.003H8.30951V20.1905H3.55951V19.003ZM28.497 19.003H34.4345V20.1905H28.497V19.003ZM29.6845 8.31549H33.247V9.50299H29.6845V8.31549Z" fill="#76FF03"/>
<path d="M2.26516 36.8095H6.07407C6.40657 36.7828 6.67079 36.4592 6.67079 36.0614V35.8685C6.67079 34.8056 6.19282 33.8764 5.47735 33.3599C5.47735 33.4044 5.48032 33.4489 5.48032 33.4935C5.48032 34.7106 4.89251 35.6963 4.1711 35.6963C3.44969 35.6963 2.86188 34.7106 2.86188 33.4935C2.86188 33.4489 2.86485 33.4044 2.86485 33.3599C2.14938 33.8794 1.67141 34.8056 1.67141 35.8685V36.0614C1.66844 36.4622 1.93266 36.7828 2.26516 36.8095Z" fill="#26A69A"/>
<path d="M4.16812 35.6992C6.84 35.6992 5.47734 34.7136 5.47734 33.4964C5.47734 33.4519 5.47437 33.4074 5.47437 33.3628C5.09437 33.0867 4.64609 32.9235 4.16812 32.9235C3.69015 32.9235 3.24187 33.0867 2.86187 33.3628C2.8589 33.4074 2.8589 33.4519 2.8589 33.4964C2.85594 34.7136 1.48437 35.6992 4.16812 35.6992Z" fill="#00796B"/>
<path d="M8.30655 31.7092C8.27389 30.8661 7.64451 29.1264 6.82217 28.981C6.79786 28.9776 6.77451 28.9693 6.75356 28.9566C6.73262 28.9438 6.71454 28.9268 6.70045 28.9067C6.56983 28.7078 6.15123 28.1735 5.3853 28.595C5.1003 28.7524 4.99936 28.8919 5.04686 29.0938C5.01123 29.1353 4.94592 29.1858 4.85092 29.1472C4.54217 28.8028 4.16217 28.7316 3.71983 29.076C3.21811 29.4678 3.21811 29.7469 3.30717 30.023L3.3042 30.026C3.3042 30.026 3.28342 30.2189 3.13795 30.2041C2.98655 30.0735 2.80545 30.0735 2.51748 30.2813C1.74561 30.8394 2.06326 31.3678 2.19389 31.6795C2.17608 31.7092 2.14639 31.73 2.09889 31.727C1.99795 31.6736 1.8703 31.6736 1.69811 31.7716C1.28842 32.0061 1.3478 32.778 1.46358 33.0303C1.59123 33.3064 2.29483 34.2742 2.5353 34.5474C2.5917 34.6097 2.65998 34.6542 2.7342 34.6839L2.71045 34.675C2.92123 34.8056 3.28936 34.963 3.64858 34.7403C3.64858 34.7403 3.87717 34.5741 3.89795 34.3989C4.28686 34.6156 4.8242 34.2119 4.8242 34.2119C5.07655 34.0189 5.14186 33.8022 5.13295 33.6152C5.26061 33.6924 5.40014 33.722 5.53373 33.725C5.93748 33.7369 6.30858 33.4994 6.30858 33.4994C6.88748 33.1699 7.00326 32.8255 7.0003 32.5969C7.30014 32.7839 7.67123 32.6444 7.67123 32.6444C8.32733 32.3445 8.30655 31.7092 8.30655 31.7092Z" fill="url(#paint3_linear_21_862)"/>
<path d="M32.0477 36.8095H35.8595C35.8595 36.8095 36.0258 33.9031 31.3589 33.7636C26.692 33.627 32.0477 36.8095 32.0477 36.8095Z" fill="#26A69A"/>
<path d="M29.5272 33.1461C29.5598 32.3029 30.1892 30.5632 31.0115 30.4178C31.062 30.4089 31.1065 30.3851 31.1333 30.3436C31.2639 30.1447 31.6825 29.6103 32.4484 30.0318C32.7334 30.1892 32.8344 30.3287 32.7869 30.5306C32.8225 30.5722 32.8878 30.6226 32.9828 30.584C33.2915 30.2397 33.6715 30.1684 34.1139 30.5128C34.6156 30.9047 34.6156 31.1837 34.5265 31.4598L34.5295 31.4628C34.5295 31.4628 34.5503 31.6558 34.6958 31.6409C34.8472 31.5103 35.0283 31.5103 35.3162 31.7181C36.0881 32.2762 35.7705 32.8047 35.6398 33.1164C35.6576 33.1461 35.6844 33.1668 35.7348 33.1639C35.8358 33.1104 35.9634 33.1104 36.1356 33.2084C36.5453 33.4429 36.4859 34.2148 36.3701 34.4672C36.2425 34.7432 35.5419 35.7111 35.2984 35.9842C35.242 36.0465 35.1737 36.0911 35.0995 36.1207C35.1084 36.1178 35.1173 36.1148 35.1233 36.1118C34.9125 36.2425 34.5444 36.3998 34.1851 36.1772C34.1851 36.1772 33.9565 36.0109 33.9358 35.8357C33.5469 36.0525 33.0095 35.6487 33.0095 35.6487C32.7572 35.4558 32.6919 35.239 32.7008 35.052C32.5731 35.1292 32.4336 35.1589 32.3 35.1618C31.8962 35.1737 31.5251 34.9362 31.5251 34.9362C30.9462 34.6067 30.8305 34.2623 30.8334 34.0337C30.5336 34.2207 30.1625 34.0812 30.1625 34.0812C29.5064 33.7843 29.5272 33.1461 29.5272 33.1461Z" fill="url(#paint4_linear_21_862)"/>
<path d="M34.5058 36.0881C34.4553 36.0614 34.4078 36.0317 34.3633 35.9931C34.3573 35.9872 34.3484 35.9812 34.3425 35.9723C34.2593 35.8803 34.2356 35.7319 34.4523 35.435C35.0461 34.6483 35.2806 34.0605 35.2806 34.0605C35.4439 33.6478 35.3845 33.5795 35.3845 33.5795C35.3281 33.4875 35.2123 33.7547 35.2123 33.7547C34.6245 34.8145 34.2208 35.2776 34.0456 35.4498C34.0367 35.4558 34.0278 35.4617 34.0189 35.4647C33.9862 35.4854 33.9506 35.5062 33.912 35.5211C33.8972 35.527 33.8793 35.5329 33.8645 35.5389C33.8318 35.5508 33.7962 35.5567 33.7606 35.5626C33.7428 35.5656 33.725 35.5686 33.7042 35.5686C33.6656 35.5686 33.627 35.5656 33.5854 35.5567C33.5676 35.5537 33.5498 35.5537 33.532 35.5478C33.4348 35.5218 33.3439 35.4764 33.2648 35.4142C33.2529 35.4023 33.2381 35.3904 33.2262 35.3786C33.2143 35.3667 33.1995 35.3548 33.1876 35.343C33.1728 35.3251 33.1579 35.3044 33.1431 35.2865C33.1372 35.2776 33.1283 35.2687 33.1223 35.2569C33.1075 35.2331 33.0956 35.2094 33.0837 35.1826C33.0808 35.1737 33.0748 35.1648 33.0718 35.1559C33.06 35.1292 33.054 35.0995 33.0481 35.0698L33.0392 35.0431C33.0333 35.0134 33.0333 34.9808 33.0303 34.9511C33.0303 34.9392 33.0273 34.9303 33.0273 34.9214C33.0273 34.8887 33.0333 34.8561 33.0392 34.8234C33.0422 34.8115 33.0422 34.7997 33.0451 34.7848C33.0511 34.7522 33.0659 34.7195 33.0778 34.6839C33.0837 34.669 33.0867 34.6542 33.0926 34.6423C33.7695 33.6864 34.1198 32.8522 34.1198 32.8522C34.2326 32.6206 34.2742 32.3772 34.2742 32.3772C34.2 32.2406 34.0812 32.4395 34.0812 32.4395C33.3093 33.8764 32.8522 34.4523 32.8522 34.4523C32.8522 34.4523 32.4929 35.0787 31.7062 34.6097C31.7062 34.6097 31.3173 34.3603 31.252 34.1851C31.1956 34.0397 31.16 33.7814 31.3589 33.4133C31.3589 33.4133 31.8309 32.4484 32.6087 31.2342C32.6087 31.2342 32.6592 31.0442 32.484 31.1511C32.3475 31.2342 32.2495 31.4064 32.202 31.4598C32.202 31.4598 31.7418 32.0744 31.0739 33.3004C31.0739 33.3004 30.9254 33.5825 30.7533 33.722C30.584 33.7933 30.3703 33.7665 30.1358 33.5914C29.6281 33.2114 29.8181 32.68 30.1001 32.1337C30.2545 31.8369 30.6078 31.1689 30.9433 30.6345C30.9759 30.6226 31.0086 30.6108 31.0412 30.6048C31.1481 30.587 31.2342 30.5306 31.2876 30.4475C31.5548 30.0408 31.344 29.6726 30.97 30.2397C30.0318 30.4 29.3668 32.2347 29.3342 33.1401C29.3342 33.1728 29.3193 33.909 30.0793 34.2475C30.1031 34.2564 30.3792 34.3573 30.6761 34.289C30.7503 34.5355 30.9522 34.8234 31.4242 35.0936C31.4331 35.0995 31.8458 35.3519 32.297 35.3459C32.3801 35.3429 32.4633 35.334 32.5404 35.3133C32.5879 35.4676 32.6889 35.6369 32.8908 35.7912C32.9145 35.809 33.3776 36.1564 33.8229 36.0673C33.909 36.2039 34.0337 36.2989 34.0664 36.3226C34.2029 36.4087 34.3484 36.4533 34.4968 36.4651H34.6304C34.8204 36.4533 35.0193 36.388 35.2153 36.2662C35.2183 36.2662 35.2183 36.2633 35.2212 36.2633C35.6814 35.9486 36.3434 34.6334 36.3434 34.4998C36.3464 34.4998 35.3459 36.2336 34.5058 36.0881Z" fill="#EDA600"/>
<path d="M27.1136 14.9714H10.8864C9.13779 14.9714 7.70685 16.4974 7.70685 18.3588C7.70685 20.2232 9.13779 21.7461 10.8864 21.7461H27.1106C28.8592 21.7461 30.2901 20.2202 30.2901 18.3588C30.2931 16.4974 28.8622 14.9714 27.1136 14.9714Z" fill="#E59600"/>
<path d="M19 3.28638C13.8344 3.28638 9.04877 8.81122 9.04877 16.7615C9.04877 24.6703 13.9799 28.5801 19 28.5801C24.0202 28.5801 28.9513 24.6703 28.9513 16.7615C28.9513 8.81122 24.1656 3.28638 19 3.28638Z" fill="#FFCA28"/>
<path d="M14.1194 18.9733C14.9277 18.9733 15.5829 18.2954 15.5829 17.4592C15.5829 16.623 14.9277 15.9451 14.1194 15.9451C13.311 15.9451 12.6558 16.623 12.6558 17.4592C12.6558 18.2954 13.311 18.9733 14.1194 18.9733Z" fill="#404040"/>
<path d="M23.8806 18.9733C24.6889 18.9733 25.3442 18.2954 25.3442 17.4592C25.3442 16.623 24.6889 15.9451 23.8806 15.9451C23.0723 15.9451 22.417 16.623 22.417 17.4592C22.417 18.2954 23.0723 18.9733 23.8806 18.9733Z" fill="#404040"/>
<path d="M20.1459 20.2053C20.1133 20.1935 20.0836 20.1845 20.0509 20.1816H17.952C17.9193 20.1845 17.8867 20.1935 17.857 20.2053C17.667 20.2825 17.5631 20.4785 17.6522 20.6892C17.7412 20.9 18.1598 21.4878 19.0029 21.4878C19.8461 21.4878 20.2647 20.897 20.3537 20.6892C20.4398 20.4785 20.3359 20.2825 20.1459 20.2053Z" fill="#E59600"/>
<path d="M11.878 15.0515C12.7656 13.7958 14.7814 13.677 15.9363 14.6122C16.1203 14.7606 16.3638 14.9684 16.435 15.2C16.5538 15.577 16.1916 15.8709 15.8383 15.7819C15.6127 15.7255 15.4019 15.6037 15.1792 15.5355C14.7725 15.4078 14.4786 15.3722 14.1135 15.3722C13.5731 15.3692 13.2258 15.4375 12.7122 15.6453C12.5014 15.7314 12.3292 15.868 12.0888 15.767C11.8156 15.6512 11.7117 15.3009 11.878 15.0515ZM25.5521 15.764C25.466 15.7255 25.3828 15.678 25.2967 15.6423C24.7683 15.4226 24.4685 15.3662 23.8955 15.3692C23.3908 15.3722 23.091 15.4405 22.6961 15.574C22.4556 15.6572 22.1499 15.865 21.8827 15.7848C21.4908 15.6661 21.5027 15.2386 21.7164 14.9655C21.9717 14.6448 22.3221 14.4014 22.6932 14.2411C23.5541 13.867 24.605 13.9205 25.4155 14.4044C25.6797 14.5617 25.9677 14.7784 26.128 15.0515C26.3625 15.4405 26.0092 15.9511 25.5521 15.764Z" fill="#6D4C41"/>
<path d="M8.44014 31.543C8.40452 30.6375 7.73952 28.8028 6.80436 28.6425C6.43327 28.0755 6.21952 28.4436 6.48671 28.8503C6.54014 28.9334 6.62921 28.9869 6.73311 29.0077C6.76577 29.0136 6.79842 29.0255 6.83108 29.0373C7.16655 29.5717 7.51983 30.2427 7.6742 30.5366C7.95624 31.0798 8.14327 31.6113 7.63858 31.9942C7.40405 32.1694 7.19327 32.1961 7.02108 32.1248C6.85186 31.9853 6.70046 31.7033 6.70046 31.7033C6.03249 30.4772 5.57233 29.8627 5.57233 29.8627C5.52483 29.8092 5.42983 29.64 5.2903 29.5539C5.11514 29.447 5.16561 29.637 5.16561 29.637C5.94342 30.8483 6.41546 31.8161 6.41546 31.8161C6.61733 32.1842 6.58171 32.4425 6.52233 32.588C6.45702 32.7631 6.06811 33.0125 6.06811 33.0125C5.28436 33.4816 4.92217 32.8552 4.92217 32.8552C4.92217 32.8552 4.46202 32.2792 3.69311 30.8423C3.69311 30.8423 3.57139 30.6434 3.50014 30.78C3.50014 30.78 3.54171 31.0234 3.65452 31.255C3.65452 31.255 4.00483 32.0863 4.68171 33.0452C4.68764 33.06 4.69061 33.0748 4.69655 33.0867C4.70842 33.1194 4.7203 33.155 4.72921 33.1877C4.73217 33.1995 4.73217 33.2114 4.73514 33.2263C4.74108 33.2589 4.74702 33.2916 4.74702 33.3242C4.74702 33.3361 4.74405 33.345 4.74405 33.3539C4.74405 33.3866 4.74108 33.4163 4.73514 33.4459C4.73217 33.4548 4.72921 33.4638 4.72921 33.4727C4.72327 33.5023 4.71436 33.532 4.70249 33.5588C4.69952 33.5677 4.69358 33.5766 4.69061 33.5855C4.67874 33.6092 4.66686 33.6359 4.65202 33.6597C4.64608 33.6686 4.63717 33.6775 4.63124 33.6894C4.61639 33.7102 4.60155 33.728 4.58671 33.7458C4.57483 33.7577 4.55999 33.7695 4.54811 33.7814C4.53624 33.7933 4.52436 33.8052 4.50952 33.817C4.4828 33.8378 4.45311 33.8586 4.42639 33.8734C4.36108 33.9091 4.29874 33.9358 4.24233 33.9506C4.22452 33.9566 4.20671 33.9566 4.18592 33.9595C4.14436 33.9655 4.10577 33.9714 4.06717 33.9714C4.04936 33.9714 4.02858 33.9684 4.01077 33.9655C3.97514 33.9595 3.93952 33.9536 3.90686 33.9417C3.89202 33.9358 3.87421 33.9298 3.85936 33.9239C3.82374 33.9091 3.78811 33.8883 3.75249 33.8675C3.74358 33.8616 3.73467 33.8586 3.72577 33.8527C3.55061 33.6805 3.14686 33.2173 2.55905 32.1575C2.55905 32.1575 2.44327 31.8903 2.38686 31.9823C2.38686 31.9823 2.32749 32.0536 2.49077 32.4633C2.49077 32.4633 2.7253 33.0511 3.31905 33.8378C3.53577 34.1347 3.51202 34.2831 3.42889 34.3752C3.42296 34.3811 3.41405 34.387 3.40811 34.3959C3.36655 34.4345 3.31608 34.4642 3.26561 34.4909C2.42546 34.6364 1.42499 32.8997 1.42499 32.8997C1.42499 33.0363 2.08702 34.3514 2.54717 34.6631C2.55014 34.6631 2.55014 34.6661 2.55311 34.6661C2.74905 34.7878 2.94499 34.8531 3.13796 34.865H3.27155C3.42296 34.8531 3.56842 34.8086 3.70202 34.7225C3.73467 34.6988 3.85936 34.6008 3.94546 34.4672C4.39077 34.5563 4.85686 34.2089 4.87764 34.1911C5.07952 34.0367 5.18046 33.8675 5.22796 33.7131C5.30514 33.7339 5.3853 33.7458 5.47139 33.7458C5.92264 33.7547 6.3353 33.4994 6.34421 33.4934C6.81624 33.2263 7.01811 32.9353 7.09233 32.6889C7.38921 32.7542 7.6653 32.6563 7.68905 32.6473C8.45499 32.3119 8.44014 31.5756 8.44014 31.543Z" fill="#EDA600"/>
<path d="M32.6533 36.8096V24.1003C32.6533 23.0375 31.7864 22.1707 30.7236 22.1707H7.27045C6.20763 22.1707 5.34076 23.0375 5.34076 24.1003V36.8125L32.6533 36.8096Z" fill="url(#paint5_linear_21_862)"/>
<path d="M23.4502 36.8095C23.2691 36.2365 23.0316 35.5894 22.8297 34.9006C22.423 33.5172 22.2538 31.2075 22.1825 29.5955C22.138 28.5772 21.2948 27.7726 20.2677 27.7726H17.7294C16.7022 27.7726 15.8591 28.5742 15.8145 29.5955C15.7433 31.2075 15.5741 33.5172 15.1673 34.9006C14.9655 35.5894 14.7309 36.2365 14.5469 36.8095H23.4502Z" fill="url(#paint6_linear_21_862)"/>
<path d="M19 1.19641H18.9881C5.50111 1.26766 8.26502 16.6755 8.26502 16.6755C8.26502 16.6755 8.87064 18.2638 9.14674 18.9644C9.18533 19.0653 9.33377 19.0534 9.35752 18.9495C9.64549 17.6611 10.6816 13.0922 11.2041 11.7028C11.3534 11.307 11.637 10.9762 12.0055 10.7683C12.374 10.5605 12.8039 10.4888 13.2199 10.5658C14.541 10.8063 16.6488 11.1031 18.9703 11.1031H19.0178C21.3394 11.1031 23.4472 10.8063 24.7683 10.5658C25.6292 10.4084 26.4783 10.8864 26.7841 11.7028C27.3036 13.0863 28.3338 17.6284 28.6247 18.9347C28.6485 19.0416 28.7969 19.0505 28.8355 18.9495L29.7202 16.6725C29.7261 16.6755 32.49 1.26766 19 1.19641Z" fill="#543930"/>
<path d="M29.7261 16.6755C29.7261 16.6755 32.49 1.26766 19 1.19641H18.9881C18.7773 1.19641 18.5725 1.20235 18.3706 1.21125C17.9698 1.22907 17.5809 1.25875 17.2068 1.30329H17.195C17.1683 1.30625 17.1445 1.31219 17.1178 1.31516C5.76528 2.74313 8.26497 16.6755 8.26497 16.6755L9.14966 18.9555C9.18825 19.0564 9.33372 19.0475 9.35747 18.9406C9.64841 17.6373 10.6815 13.0892 11.204 11.7058C11.3533 11.3099 11.637 10.9791 12.0055 10.7713C12.374 10.5634 12.8038 10.4917 13.2198 10.5688C14.5409 10.8092 16.6487 11.1061 18.9703 11.1061H19.0178C21.3393 11.1061 23.4472 10.8092 24.7683 10.5688C25.6292 10.4114 26.4783 10.8894 26.784 11.7058C27.3065 13.0952 28.3426 17.673 28.6276 18.9555C28.6514 19.0623 28.7968 19.0713 28.8354 18.9703C29.1175 18.2697 29.7261 16.6755 29.7261 16.6755Z" fill="url(#paint7_radial_21_862)"/>
<defs>
<linearGradient id="paint0_linear_21_862" x1="18.9982" y1="2.5288" x2="18.9982" y2="26.1491" gradientUnits="userSpaceOnUse">
<stop offset="0.003" stop-color="#424242"/>
<stop offset="0.271" stop-color="#353535"/>
<stop offset="0.764" stop-color="#131313"/>
<stop offset="1"/>
</linearGradient>
<linearGradient id="paint1_linear_21_862" x1="18.9982" y1="2.5288" x2="18.9982" y2="26.1491" gradientUnits="userSpaceOnUse">
<stop offset="0.001" stop-color="#BFBEBE"/>
<stop offset="0.15" stop-color="#212121" stop-opacity="0"/>
<stop offset="0.776" stop-color="#212121" stop-opacity="0"/>
<stop offset="1" stop-color="#BFBEBE"/>
</linearGradient>
<linearGradient id="paint2_linear_21_862" x1="1.41641" y1="14.2524" x2="36.8467" y2="14.2524" gradientUnits="userSpaceOnUse">
<stop offset="0.001" stop-color="#BFBEBE"/>
<stop offset="0.1" stop-color="#212121" stop-opacity="0"/>
<stop offset="0.9" stop-color="#212121" stop-opacity="0"/>
<stop offset="1" stop-color="#BFBEBE"/>
</linearGradient>
<linearGradient id="paint3_linear_21_862" x1="6.06276" y1="33.5249" x2="3.18872" y2="29.4349" gradientUnits="userSpaceOnUse">
<stop stop-color="#FFB300"/>
<stop offset="0.5" stop-color="#FFCA28"/>
</linearGradient>
<linearGradient id="paint4_linear_21_862" x1="31.7692" y1="34.9623" x2="34.6432" y2="30.8726" gradientUnits="userSpaceOnUse">
<stop stop-color="#FFB300"/>
<stop offset="0.5" stop-color="#FFCA28"/>
</linearGradient>
<linearGradient id="paint5_linear_21_862" x1="18.9982" y1="22.1273" x2="18.9982" y2="42.4374" gradientUnits="userSpaceOnUse">
<stop stop-color="#4DD0E1"/>
<stop offset="1" stop-color="#00BCD4"/>
</linearGradient>
<linearGradient id="paint6_linear_21_862" x1="18.9979" y1="27.4918" x2="18.9979" y2="39.1525" gradientUnits="userSpaceOnUse">
<stop stop-color="#00BCD4"/>
<stop offset="1" stop-color="#0097A7"/>
</linearGradient>
<radialGradient id="paint7_radial_21_862" cx="0" cy="0" r="1" gradientUnits="userSpaceOnUse" gradientTransform="translate(18.9949 13.9821) scale(11.3089 12.7587)">
<stop offset="0.794" stop-color="#6D4C41" stop-opacity="0"/>
<stop offset="1" stop-color="#6D4C41"/>
</radialGradient>
</defs>
</svg>
